<?xml version="1.0" encoding="utf-8"?>
<svg  viewBox="145.093 137.956 81.956 35.175" xmlns="http://www.w3.org/2000/svg">
  <path class="cls-1" d="M 170.384 152.51 L 162.006 137.998 C 161.974 137.942 161.892 137.942 161.859 137.998 L 153.481 152.51 L 145.104 167.021 C 145.072 167.077 145.112 167.147 145.177 167.148 L 178.707 167.148 C 178.764 167.148 178.8 167.087 178.772 167.037 C 178.772 167.037 178.772 167.036 178.771 167.036 Z M 171.879 163.21 L 152 163.21 C 151.962 163.211 151.937 163.17 151.955 163.136 C 151.955 163.135 151.956 163.135 151.956 163.134 L 156.923 154.534 L 161.89 145.934 C 161.909 145.9 161.957 145.9 161.977 145.933 C 161.977 145.933 161.977 145.934 161.977 145.934 L 166.944 154.534 L 171.916 163.146 C 171.927 163.173 171.909 163.203 171.879 163.206 Z" style="fill: rgb(255, 255, 255);"/>
  <text style="font-family: Arial, sans-serif; font-size: 30.4968px; font-weight: 700; letter-spacing: 4.5px; line-height: 44.8756px; word-spacing: 100px; white-space: pre;" transform="matrix(0.857669, 0, 0, 0.870012, 18.032427, 8.48142)" x="167.525" y="182.482">TOM</text>
</svg>
