<?xml version="1.0" encoding="utf-8"?>
<svg viewBox="186.431 176.92 160.187 44.631" xmlns="http://www.w3.org/2000/svg">
  <path class="cls-1" d="M 211.722 198.101 L 203.344 183.589 C 203.312 183.533 203.23 183.533 203.197 183.589 L 194.819 198.101 L 186.442 212.612 C 186.41 212.668 186.45 212.738 186.515 212.739 L 220.045 212.739 C 220.102 212.739 220.138 212.678 220.11 212.628 C 220.11 212.628 220.11 212.627 220.109 212.627 Z M 213.217 208.801 L 193.338 208.801 C 193.3 208.802 193.275 208.761 193.293 208.727 C 193.293 208.726 193.294 208.726 193.294 208.725 L 198.261 200.125 L 203.228 191.525 C 203.247 191.491 203.295 191.491 203.315 191.524 C 203.315 191.524 203.315 191.525 203.315 191.525 L 208.282 200.125 L 213.254 208.737 C 213.265 208.764 213.247 208.794 213.217 208.797 Z" style="fill: rgb(255, 255, 255);"/>
  <text style="fill: rgb(255, 255, 255); font-family: Arial, sans-serif; font-size: 31.5507px; letter-spacing: 3.5px; line-height: 44.8756px; word-spacing: 100px; white-space: pre;" transform="matrix(1.191944, 0, 0, 1.267801, 29.280909, -18.559328)" x="167.525" y="182.482">ATOM</text>
</svg>